<svg viewBox="0 0 1200 630" xmlns="http://www.w3.org/2000/svg" role="img" aria-label="Infrastruktur — Data Center Jakarta">
  <defs>
    <linearGradient id="bg" x1="0" y1="0" x2="1" y2="1">
      <stop offset="0" stop-color="#0a090d"/>
      <stop offset="1" stop-color="#15102a"/>
    </linearGradient>
    <radialGradient id="glow" cx="0.5" cy="0.5" r="0.5">
      <stop offset="0" stop-color="#a78bfa" stop-opacity="0.5"/>
      <stop offset="1" stop-color="#a78bfa" stop-opacity="0"/>
    </radialGradient>
    <linearGradient id="acc" x1="0" y1="0" x2="1" y2="1">
      <stop offset="0" stop-color="#a78bfa"/>
      <stop offset="1" stop-color="#8b5cf6"/>
    </linearGradient>
    <pattern id="grid" width="48" height="48" patternUnits="userSpaceOnUse">
      <path d="M48 0H0V48" fill="none" stroke="#a78bfa" stroke-opacity="0.06" stroke-width="1"/>
    </pattern>
  </defs>
  <rect width="1200" height="630" fill="url(#bg)"/>
  <rect width="1200" height="630" fill="url(#grid)"/>
  <circle cx="1010" cy="90" r="460" fill="url(#glow)"/>
  <rect x="96" y="140" width="104" height="104" rx="26" fill="#a78bfa" fill-opacity="0.10" stroke="#a78bfa" stroke-opacity="0.35"/>
  <g transform="translate(122,166)" stroke="url(#acc)" stroke-width="3.4" fill="none" stroke-linecap="round" stroke-linejoin="round">
    <circle cx="30" cy="30" r="27"/>
    <ellipse cx="30" cy="30" rx="12" ry="27"/>
    <path d="M3 30h54"/>
    <path d="M8 16h44M8 44h44"/>
  </g>
  <text x="98" y="318" font-family="'Segoe UI',system-ui,sans-serif" font-size="22" font-weight="700" letter-spacing="6" fill="#a78bfa">INFRASTRUKTUR</text>
  <text x="94" y="392" font-family="'Segoe UI',system-ui,sans-serif" font-size="62" font-weight="800" fill="#fafaf9">Data Center</text>
  <text x="94" y="462" font-family="'Segoe UI',system-ui,sans-serif" font-size="62" font-weight="800" fill="#fafaf9">Jakarta</text>
  <rect x="96" y="528" width="40" height="3" rx="1.5" fill="url(#acc)"/>
  <text x="150" y="540" font-family="'Segoe UI',system-ui,sans-serif" font-size="22" font-weight="700" letter-spacing="2" fill="#e7e5e4">JadeNode <tspan fill="#78716c" font-weight="500">· Marketplace</tspan></text>
</svg>
