<svg viewBox="0 0 1200 630" xmlns="http://www.w3.org/2000/svg" role="img" aria-label="Produk — Lini VPS JadeNode">
  <defs>
    <linearGradient id="bg" x1="0" y1="0" x2="1" y2="1">
      <stop offset="0" stop-color="#080b0a"/>
      <stop offset="1" stop-color="#0e1a16"/>
    </linearGradient>
    <radialGradient id="glow" cx="0.5" cy="0.5" r="0.5">
      <stop offset="0" stop-color="#34d399" stop-opacity="0.5"/>
      <stop offset="1" stop-color="#34d399" stop-opacity="0"/>
    </radialGradient>
    <linearGradient id="acc" x1="0" y1="0" x2="1" y2="1">
      <stop offset="0" stop-color="#34d399"/>
      <stop offset="1" stop-color="#10b981"/>
    </linearGradient>
    <pattern id="grid" width="48" height="48" patternUnits="userSpaceOnUse">
      <path d="M48 0H0V48" fill="none" stroke="#34d399" stroke-opacity="0.06" stroke-width="1"/>
    </pattern>
  </defs>
  <rect width="1200" height="630" fill="url(#bg)"/>
  <rect width="1200" height="630" fill="url(#grid)"/>
  <circle cx="1010" cy="90" r="460" fill="url(#glow)"/>
  <rect x="96" y="140" width="104" height="104" rx="26" fill="#34d399" fill-opacity="0.10" stroke="#34d399" stroke-opacity="0.35"/>
  <g transform="translate(122,166)" stroke="url(#acc)" stroke-width="3.6" fill="none" stroke-linecap="round" stroke-linejoin="round">
    <rect x="3" y="4" width="54" height="15" rx="4"/>
    <rect x="3" y="26" width="54" height="15" rx="4"/>
    <rect x="3" y="48" width="54" height="13" rx="4"/>
    <path d="M44 11.5h8M44 33.5h8"/>
    <circle cx="14" cy="11.5" r="1.9" fill="url(#acc)" stroke="none"/>
    <circle cx="14" cy="33.5" r="1.9" fill="url(#acc)" stroke="none"/>
  </g>
  <text x="98" y="318" font-family="'Segoe UI',system-ui,sans-serif" font-size="22" font-weight="700" letter-spacing="6" fill="#34d399">PRODUK</text>
  <text x="94" y="392" font-family="'Segoe UI',system-ui,sans-serif" font-size="62" font-weight="800" fill="#fafaf9">Lini VPS</text>
  <text x="94" y="462" font-family="'Segoe UI',system-ui,sans-serif" font-size="62" font-weight="800" fill="#fafaf9">Starter→Enterprise</text>
  <rect x="96" y="528" width="40" height="3" rx="1.5" fill="url(#acc)"/>
  <text x="150" y="540" font-family="'Segoe UI',system-ui,sans-serif" font-size="22" font-weight="700" letter-spacing="2" fill="#e7e5e4">JadeNode <tspan fill="#78716c" font-weight="500">· Marketplace</tspan></text>
</svg>
