<svg viewBox="0 0 1200 630" xmlns="http://www.w3.org/2000/svg" role="img" aria-label="Tutorial — Deploy VPS Pertama">
  <defs>
    <linearGradient id="bg" x1="0" y1="0" x2="1" y2="1">
      <stop offset="0" stop-color="#08090c"/>
      <stop offset="1" stop-color="#0c1622"/>
    </linearGradient>
    <radialGradient id="glow" cx="0.5" cy="0.5" r="0.5">
      <stop offset="0" stop-color="#38bdf8" stop-opacity="0.5"/>
      <stop offset="1" stop-color="#38bdf8" stop-opacity="0"/>
    </radialGradient>
    <linearGradient id="acc" x1="0" y1="0" x2="1" y2="1">
      <stop offset="0" stop-color="#38bdf8"/>
      <stop offset="1" stop-color="#0ea5e9"/>
    </linearGradient>
    <pattern id="grid" width="48" height="48" patternUnits="userSpaceOnUse">
      <path d="M48 0H0V48" fill="none" stroke="#38bdf8" stroke-opacity="0.06" stroke-width="1"/>
    </pattern>
  </defs>
  <rect width="1200" height="630" fill="url(#bg)"/>
  <rect width="1200" height="630" fill="url(#grid)"/>
  <circle cx="1010" cy="90" r="460" fill="url(#glow)"/>
  <rect x="96" y="140" width="104" height="104" rx="26" fill="#38bdf8" fill-opacity="0.10" stroke="#38bdf8" stroke-opacity="0.35"/>
  <g transform="translate(122,166)" stroke="url(#acc)" stroke-width="3.6" fill="none" stroke-linecap="round" stroke-linejoin="round">
    <rect x="2" y="6" width="56" height="46" rx="7"/>
    <path d="M2 19h56"/>
    <circle cx="11" cy="12.5" r="1.7" fill="url(#acc)" stroke="none"/>
    <circle cx="19" cy="12.5" r="1.7" fill="url(#acc)" stroke="none"/>
    <path d="M13 31l9 7-9 7"/>
    <path d="M28 45h17"/>
  </g>
  <text x="98" y="318" font-family="'Segoe UI',system-ui,sans-serif" font-size="22" font-weight="700" letter-spacing="6" fill="#38bdf8">TUTORIAL</text>
  <text x="94" y="392" font-family="'Segoe UI',system-ui,sans-serif" font-size="62" font-weight="800" fill="#fafaf9">Deploy VPS</text>
  <text x="94" y="462" font-family="'Segoe UI',system-ui,sans-serif" font-size="62" font-weight="800" fill="#fafaf9">Pertama Anda</text>
  <rect x="96" y="528" width="40" height="3" rx="1.5" fill="url(#acc)"/>
  <text x="150" y="540" font-family="'Segoe UI',system-ui,sans-serif" font-size="22" font-weight="700" letter-spacing="2" fill="#e7e5e4">JadeNode <tspan fill="#78716c" font-weight="500">· Marketplace</tspan></text>
</svg>
