<svg viewBox="0 0 1200 630" xmlns="http://www.w3.org/2000/svg" role="img" aria-label="Peluncuran — JadeNode Marketplace">
  <defs>
    <linearGradient id="bg" x1="0" y1="0" x2="1" y2="1">
      <stop offset="0" stop-color="#0c0a09"/>
      <stop offset="1" stop-color="#1a1410"/>
    </linearGradient>
    <radialGradient id="glow" cx="0.5" cy="0.5" r="0.5">
      <stop offset="0" stop-color="#fb923c" stop-opacity="0.5"/>
      <stop offset="1" stop-color="#fb923c" stop-opacity="0"/>
    </radialGradient>
    <linearGradient id="acc" x1="0" y1="0" x2="1" y2="1">
      <stop offset="0" stop-color="#fb923c"/>
      <stop offset="1" stop-color="#f97316"/>
    </linearGradient>
    <pattern id="grid" width="48" height="48" patternUnits="userSpaceOnUse">
      <path d="M48 0H0V48" fill="none" stroke="#fb923c" stroke-opacity="0.06" stroke-width="1"/>
    </pattern>
  </defs>
  <rect width="1200" height="630" fill="url(#bg)"/>
  <rect width="1200" height="630" fill="url(#grid)"/>
  <circle cx="1010" cy="90" r="460" fill="url(#glow)"/>
  <rect x="96" y="140" width="104" height="104" rx="26" fill="#fb923c" fill-opacity="0.10" stroke="#fb923c" stroke-opacity="0.35"/>
  <g transform="translate(122,166)" stroke="url(#acc)" stroke-width="3.6" fill="none" stroke-linecap="round" stroke-linejoin="round">
    <path d="M30 4 51 50 30 39 9 50Z" fill="url(#acc)" fill-opacity="0.18"/>
    <path d="M30 39V58"/>
    <circle cx="13" cy="13" r="2" fill="url(#acc)" stroke="none"/>
    <circle cx="48" cy="11" r="1.6" fill="url(#acc)" stroke="none"/>
  </g>
  <text x="98" y="318" font-family="'Segoe UI',system-ui,sans-serif" font-size="22" font-weight="700" letter-spacing="6" fill="#fb923c">PELUNCURAN</text>
  <text x="94" y="392" font-family="'Segoe UI',system-ui,sans-serif" font-size="62" font-weight="800" fill="#fafaf9">JadeNode</text>
  <text x="94" y="462" font-family="'Segoe UI',system-ui,sans-serif" font-size="62" font-weight="800" fill="#fafaf9">Resmi Hadir</text>
  <rect x="96" y="528" width="40" height="3" rx="1.5" fill="url(#acc)"/>
  <text x="150" y="540" font-family="'Segoe UI',system-ui,sans-serif" font-size="22" font-weight="700" letter-spacing="2" fill="#e7e5e4">JadeNode <tspan fill="#78716c" font-weight="500">· Marketplace</tspan></text>
</svg>
